<?xml version="1.0" encoding="utf-8"?>
<!-- Generator: Adobe Illustrator 16.0.0, SVG Export Plug-In . SVG Version: 6.00 Build 0)  -->
<!DOCTYPE svg PUBLIC "-//W3C//DTD SVG 1.1//EN" "http://www.w3.org/Graphics/SVG/1.1/DTD/svg11.dtd">
<svg version="1.1" xmlns="http://www.w3.org/2000/svg" xmlns:xlink="http://www.w3.org/1999/xlink" x="0px" y="0px" width="750px"
	 height="500px" viewBox="0 0 750 500" enable-background="new 0 0 750 500" xml:space="preserve">
<g id="BACKGROUND">
	<rect fill="#FFFAF3" width="750" height="500"/>
</g>
<g id="OBJECTS">
	<g>
		<g>
			<rect fill="#F78861" width="125" height="124.968"/>
			<path fill="#FFFAF3" d="M0.016,62.521H0V0h62.538v0C62.538,34.53,34.546,62.521,0.016,62.521z"/>
			<path fill="#383889" d="M124.983,62.446H125v62.521H62.462l0,0C62.462,90.438,90.454,62.446,124.983,62.446z"/>
			<path fill="#383889" d="M0.005,0v36.639l0,0c20.229,0,36.629-16.4,36.629-36.629V0H0.005z"/>
		</g>
		<g>
			<rect x="500" fill="#F78861" width="125" height="124.968"/>
			<g>
				<path fill="#383889" d="M500,124.968h0.033C569.05,124.968,625,69.018,625,0v0h-0.032C555.95,0,500,55.95,500,124.968
					L500,124.968z"/>
				<path fill="#FFFAF3" d="M533.998,90.979h0.015c31.475,0,56.99-25.515,56.99-56.99l0,0h-0.016
					C559.513,33.989,533.998,59.504,533.998,90.979L533.998,90.979z"/>
			</g>
			<path fill="#383889" d="M572.845,124.968H625V72.827h-0.014C596.19,72.827,572.845,96.171,572.845,124.968L572.845,124.968z"/>
		</g>
		<g>
			<rect x="375" fill="#2F84AF" width="125" height="124.968"/>
			<g>
				<path fill="#FFFAF3" d="M500,124.968h-0.032C430.95,124.968,375,69.018,375,0v0h0.033C444.05,0,500,55.95,500,124.968
					L500,124.968z"/>
				<path fill="#383889" d="M466.002,90.979h-0.016c-31.474,0-56.989-25.515-56.989-56.99l0,0h0.015
					C440.487,33.989,466.002,59.504,466.002,90.979L466.002,90.979z"/>
			</g>
			<path fill="#F78861" d="M427.154,124.968H375V72.827h0.014C403.81,72.827,427.154,96.171,427.154,124.968L427.154,124.968z"/>
		</g>
		<g>
			<rect x="250" fill="#F78861" width="125" height="124.968"/>
			<polygon fill="#383889" points="375.01,124.955 250.027,-0.027 375,-0.027 			"/>
			<path fill="#2F84AF" d="M322.846,124.968H375V72.827h-0.014C346.19,72.827,322.846,96.171,322.846,124.968L322.846,124.968z"/>
		</g>
		<g>
			<rect x="125" y="124.968" fill="#383889" width="125" height="124.967"/>
			<path fill="#FFFAF3" d="M187.511,231.292h-0.023c-24.212,0-43.841-19.628-43.841-43.841l0,0
				c0-24.213,19.628-43.841,43.841-43.841h0.023c24.213,0,43.841,19.628,43.841,43.841l0,0
				C231.353,211.664,211.724,231.292,187.511,231.292z"/>
			<path fill="#F78861" d="M187.506,211.385h-0.012c-13.218,0-23.934-10.715-23.934-23.933l0,0
				c0-13.218,10.715-23.934,23.934-23.934h0.012c13.218,0,23.934,10.715,23.934,23.934l0,0
				C211.439,200.669,200.724,211.385,187.506,211.385z"/>
		</g>
		<g>
			<polygon fill="#2F84AF" points="625.026,249.921 625.012,249.935 749.948,249.935 687.5,187.468 			"/>
			<polygon fill="#383889" points="750,124.968 625,124.968 625,249.935 625.006,249.935 625.006,124.981 625.046,124.981 
				687.5,187.455 749.973,125.001 749.994,124.981 749.994,249.935 750,249.935 			"/>
			<polygon fill="#F78861" points="749.973,125.001 687.5,187.455 687.506,187.461 687.5,187.468 749.948,249.935 749.994,249.935 
				749.994,124.981 			"/>
			<polygon fill="#FFFAF3" points="687.5,187.468 687.494,187.461 687.5,187.455 625.046,124.981 625.006,124.981 625.006,249.935 
				625.012,249.935 625.026,249.921 			"/>
			
				<rect x="687.495" y="187.457" transform="matrix(-0.7328 0.6805 -0.6805 -0.7328 1318.853 -142.9778)" fill="#FFFAF3" width="0.009" height="0.009"/>
		</g>
		<g>
			<rect x="500" y="249.935" fill="#383889" width="125" height="124.968"/>
			<path fill="#F78861" d="M500,249.935h125v0c0,69.017-55.949,124.967-124.967,124.967H500V249.935z"/>
			<path fill="#FFFAF3" d="M500,249.935h62.908l0,0c0,34.734-28.157,62.892-62.892,62.892H500V249.935z"/>
		</g>
		<g>
			<rect x="500" y="374.905" fill="#FFFAF3" width="125" height="62.48"/>
			<rect x="500" y="437.386" fill="#383889" width="62.5" height="62.484"/>
			<rect x="562.5" y="437.386" fill="#F78861" width="62.5" height="62.484"/>
			<path fill="#2F84AF" d="M562.31,467.274h-0.016c-16.507,0-29.888-13.381-29.888-29.888l0,0c0-16.506,13.381-29.887,29.888-29.887
				h0.016c16.506,0,29.887,13.381,29.887,29.887l0,0C592.197,453.893,578.816,467.274,562.31,467.274z"/>
			<path fill="#383889" d="M562.304,447.145h-0.005c-5.39,0-9.758-4.369-9.758-9.759l0,0c0-5.389,4.368-9.758,9.758-9.758h0.005
				c5.39,0,9.759,4.369,9.759,9.758l0,0C572.063,442.776,567.694,447.145,562.304,447.145z"/>
		</g>
		<g>
			<rect x="375" y="124.968" fill="#F78861" width="125" height="124.967"/>
			<rect x="500" y="124.968" fill="#2F84AF" width="125" height="124.967"/>
			<rect x="562.91" y="124.965" fill="#2F84AF" width="62.09" height="124.97"/>
			<rect x="562.91" y="124.965" fill="#FFFAF3" width="62.09" height="124.97"/>
			<rect x="375" y="124.965" fill="#FFFAF3" width="62.09" height="124.97"/>
			<polyline fill="#383889" points="562.49,124.965 499.79,187.665 437.09,124.965 			"/>
			<polygon fill="#2F84AF" points="500,249.935 375.01,249.935 375.01,124.955 			"/>
			<polygon fill="#383889" points="500.01,249.935 625,249.935 625,124.955 			"/>
			<path fill="#383889" d="M418.558,227.735h-0.005c-5.272,0-9.547-4.274-9.547-9.546l0,0c0-5.272,4.274-9.546,9.547-9.546h0.005
				c5.271,0,9.546,4.274,9.546,9.546l0,0C428.104,223.461,423.83,227.735,418.558,227.735z"/>
			<path fill="#FFFAF3" d="M584.125,227.735h-0.005c-5.272,0-9.547-4.274-9.547-9.546l0,0c0-5.272,4.274-9.546,9.547-9.546h0.005
				c5.272,0,9.546,4.274,9.546,9.546l0,0C593.67,223.461,589.397,227.735,584.125,227.735z"/>
		</g>
		<g>
			<rect x="375" y="249.935" fill="#383889" width="125" height="124.968"/>
			<polygon fill="#FFFAF3" points="500,374.903 375,374.903 375,249.935 			"/>
			<path fill="#383889" d="M375,374.903v-62.908l0,0c34.734,0,62.891,28.158,62.891,62.892v0.017H375z"/>
		</g>
		<g>
			<rect x="250" y="249.935" fill="#F78861" width="125" height="124.97"/>
			<rect x="125" y="374.903" fill="#383889" width="125" height="124.968"/>
			<rect x="250" y="374.903" fill="#383889" width="125" height="124.968"/>
			<rect x="375" y="374.903" fill="#2F84AF" width="125" height="124.968"/>
			<path fill="#F78861" d="M250,499.871H125l0,0c0-69.019,55.95-124.968,124.967-124.968H250V499.871z"/>
			<path fill="#FFFAF3" d="M250,499.871h-62.908l0,0c0-34.734,28.157-62.892,62.891-62.892H250V499.871z"/>
			<polygon fill="#FFFAF3" points="500,499.875 374.98,499.885 250,374.905 250,249.935 250.06,249.935 			"/>
			<g>
				<path fill="#383889" d="M312.511,354.039h-0.022c-22.986,0-41.62-18.634-41.62-41.619l0,0c0-22.986,18.634-41.62,41.62-41.62
					h0.022c22.986,0,41.62,18.634,41.62,41.62l0,0C354.131,335.405,335.497,354.039,312.511,354.039z"/>
				<path fill="#FFFAF3" d="M312.503,324.841h-0.006c-6.86,0-12.422-5.562-12.422-12.422l0,0c0-6.861,5.562-12.423,12.422-12.423
					h0.006c6.861,0,12.422,5.562,12.422,12.423l0,0C324.925,319.28,319.364,324.841,312.503,324.841z"/>
			</g>
			<polygon fill="#F78861" points="437.689,499.871 375,499.871 437.689,437.198 			"/>
			<polygon fill="#F78861" points="250,374.903 312.689,374.903 250,437.576 			"/>
			<polygon fill="#2F84AF" points="312.311,499.871 375,499.871 312.311,437.198 			"/>
			
				<rect x="354.722" y="418.006" transform="matrix(0.7071 -0.7071 0.7071 0.7071 -199.8396 392.9516)" fill="#383889" width="39.408" height="39.408"/>
		</g>
		<g>
			<polygon fill="#F78861" points="749.954,249.941 749.994,249.941 749.994,249.935 749.948,249.935 			"/>
			<polygon fill="#FFFAF3" points="625.006,249.941 625.012,249.935 625.006,249.935 			"/>
			<rect x="625" y="249.935" fill="#2F84AF" width="125" height="124.968"/>
			<polygon fill="#2F84AF" points="749.98,374.905 625,374.905 625,249.935 625.02,249.935 			"/>
			<rect x="625" y="374.903" fill="#383889" width="125" height="124.968"/>
			<polygon fill="#2F84AF" points="687.49,499.875 625,499.875 625,437.385 			"/>
			<polygon fill="#FFFAF3" points="750,374.905 750,499.875 749.97,499.875 625,374.905 			"/>
			<polygon fill="#383889" points="749.98,374.905 625,374.905 625.01,249.935 625.02,249.935 			"/>
			<polygon fill="#FFFAF3" points="750,374.905 750,499.875 749.97,499.875 625,374.905 			"/>
			<path fill="#FFFAF3" d="M750,499.871h-62.523l0,0c0-34.522,27.985-62.508,62.508-62.508H750V499.871z"/>
			<path fill="#383889" d="M750,499.871h-39.294l0,0c0-21.696,17.588-39.284,39.284-39.284H750V499.871z"/>
			<polygon fill="#2F84AF" points="687.49,499.875 625,499.875 625,437.385 			"/>
			<g>
				<path fill="#F78861" d="M687.5,374.905L687.5,374.905c0,34.509,27.976,62.484,62.484,62.484H750v-62.484H687.5z"/>
				<path fill="#FFFAF3" d="M687.5,374.905L687.5,374.905c0-34.509,27.976-62.483,62.484-62.483H750v62.483H687.5z"/>
				<path fill="#2F84AF" d="M716.84,374.905L716.84,374.905c0,18.309,14.842,33.151,33.151,33.151H750v-33.151H716.84z"/>
				<path fill="#383889" d="M716.84,374.905L716.84,374.905c0-18.309,14.842-33.15,33.151-33.15H750v33.15H716.84z"/>
			</g>
		</g>
		<g>
			<rect x="125" fill="#FFFAF3" width="125" height="124.968"/>
			<path fill="#2F84AF" d="M187.5,124.968L187.5,124.968c-34.518,0-62.5-27.982-62.5-62.5V0h125v62.468
				C250,96.985,222.018,124.968,187.5,124.968z"/>
			<rect x="125" fill="#383889" width="125" height="62.468"/>
			<g>
				<polygon fill="#FFFAF3" points="125,0 187.5,62.468 187.5,0 				"/>
				<polygon fill="#2F84AF" points="250,0 187.5,0 187.5,62.468 				"/>
			</g>
			<path fill="#F78861" d="M187.506,86.629h-0.012c-13.218,0-23.934-10.715-23.934-23.934l0,0c0-13.218,10.715-23.933,23.934-23.933
				h0.012c13.218,0,23.934,10.715,23.934,23.933l0,0C211.439,75.914,200.724,86.629,187.506,86.629z"/>
		</g>
		<g>
			<rect x="625" fill="#FFFAF3" width="125" height="124.968"/>
			<path fill="#2F84AF" d="M750,124.968H625V0h0.033C694.05,0,750,55.95,750,124.968L750,124.968z"/>
			<path fill="#F78861" d="M677.154,124.968H625V72.827h0.014C653.81,72.827,677.154,96.171,677.154,124.968L677.154,124.968z"/>
			<path fill="#FFFAF3" d="M700.607,75.588h-26.214V49.38h0.007C688.874,49.38,700.607,61.114,700.607,75.588L700.607,75.588z"/>
		</g>
		<g>
			<rect y="374.903" fill="#2F84AF" width="125" height="124.968"/>
			<polygon fill="#FFFAF3" points="125,499.875 0,499.875 0,374.905 0.04,374.905 			"/>
			<polygon fill="#FFFAF3" points="125,499.875 0,499.875 0,374.905 0.04,374.905 			"/>
			<path fill="#F78861" d="M0,499.871h62.908l0,0c0-34.734-28.158-62.892-62.892-62.892H0V499.871z"/>
			<path fill="#383889" d="M0,499.871h36.639l0,0c0-20.23-16.399-36.63-36.629-36.63H0V499.871z"/>
			<polygon fill="#F78861" points="124.999,374.901 124.99,427.924 71.972,374.906 			"/>
		</g>
		<g>
			<rect x="125" y="249.935" fill="#2F84AF" width="125" height="124.968"/>
			<path fill="#383889" d="M187.297,326.611h-0.007c-7.838,0-14.192-6.354-14.192-14.191l0,0c0-7.838,6.354-14.192,14.192-14.192
				h0.007c7.837,0,14.191,6.354,14.191,14.192l0,0C201.488,320.256,195.134,326.611,187.297,326.611z"/>
			<polygon fill="#F78861" points="250,249.903 249.991,302.925 196.973,249.907 			"/>
			<polygon fill="#FFFAF3" points="125,374.903 125.008,321.88 178.027,374.899 			"/>
		</g>
		<g>
			<rect y="249.935" fill="#383889" width="125" height="124.968"/>
			<polygon fill="#383889" points="124.97,374.905 0,374.905 0,249.935 			"/>
			<path fill="#FFFAF3" d="M62.51,351.827H62.49c-21.765,0-39.408-17.644-39.408-39.407l0,0c0-21.765,17.644-39.408,39.408-39.408
				h0.021c21.764,0,39.408,17.644,39.408,39.408l0,0C101.918,334.183,84.274,351.827,62.51,351.827z"/>
			<polygon fill="#F78861" points="62.49,312.425 0,374.905 0,249.935 			"/>
			<path fill="#2F84AF" d="M62.503,326.611h-0.007c-7.837,0-14.191-6.354-14.191-14.191l0,0c0-7.838,6.354-14.192,14.191-14.192
				h0.007c7.838,0,14.191,6.354,14.191,14.192l0,0C76.695,320.256,70.341,326.611,62.503,326.611z"/>
		</g>
		<g>
			<g>
				<polygon fill="#F78861" points="250,124.965 250,124.968 250.002,124.968 				"/>
				<polygon fill="#F78861" points="250.002,124.968 250,124.968 250,249.935 312.5,187.455 				"/>
				<polygon fill="#FFFAF3" points="374.96,249.941 375,249.941 375,249.935 374.954,249.935 				"/>
				<polygon fill="#FFFAF3" points="312.5,187.461 374.954,249.935 375,249.935 375,124.981 374.98,125.001 				"/>
			</g>
			<polygon fill="#383889" points="374.98,125.001 375,124.981 375,124.968 250.002,124.968 312.5,187.455 312.506,187.455 			"/>
			<polygon fill="#2F84AF" points="312.506,187.455 312.5,187.455 250,249.935 250,249.935 374.954,249.935 312.5,187.461 			"/>
		</g>
		<g>
			<rect y="124.968" fill="#2F84AF" width="125" height="124.967"/>
			<g>
				<path fill="#F78861" d="M125,124.968v62.467c0,34.518-27.982,62.5-62.5,62.5l0,0v-62.467
					C62.5,152.95,90.482,124.968,125,124.968L125,124.968z"/>
			</g>
			<path fill="#FFFAF3" d="M60.979,142.758H60.97c-9.721,0-17.602-7.88-17.602-17.602l0,0c0-9.721,7.88-17.602,17.602-17.602h0.009
				c9.721,0,17.602,7.88,17.602,17.602l0,0C78.581,134.878,70.701,142.758,60.979,142.758z"/>
			<g>
				<path fill="#383889" d="M0,124.968L0,124.968v62.467h62.499C62.481,152.933,34.507,124.968,0,124.968z"/>
				<path fill="#FFFAF3" d="M0,187.435c0,34.518,27.982,62.5,62.5,62.5l0,0v-62.467c0-0.011-0.001-0.021-0.001-0.033H0z"/>
				<path fill="#383889" d="M125,187.435c0,34.518-27.982,62.5-62.5,62.5l0,0v-62.467c0-0.011,0-0.021,0-0.033H125z"/>
			</g>
		</g>
	</g>
</g>
</svg>
